<svg id="Layer_1" data-name="Layer 1" xmlns="http://www.w3.org/2000/svg" height="100%" width="100%" viewBox="0 0 600 200"><defs><style>.cls-1{fill:#231f20;}</style></defs><title>Icons</title><g id="_8rGiuS" data-name="8rGiuS"><path class="cls-1" d="M116.93,150.67q-2.17,0-4.33-.1c-13.83-.63-23.95-7.69-29.27-20.42A102.5,102.5,0,0,1,75.59,85V84.9C76.68,72.31,82.87,63.32,94,58.19a95.7,95.7,0,0,1,46.45-8.67c13.55,0.83,23.13,7.9,28.48,21a103.59,103.59,0,0,1,7.6,41c-0.25,15.46-7.65,26.16-22,31.78A102.78,102.78,0,0,1,116.93,150.67ZM79.58,85.21A98.52,98.52,0,0,0,87,128.61c4.75,11.36,13.41,17.41,25.76,18a97.66,97.66,0,0,0,40.28-7c12.7-5,19.25-14.44,19.47-28.12a99.61,99.61,0,0,0-7.3-39.43c-4.79-11.74-13-17.81-25-18.55a91.71,91.71,0,0,0-44.53,8.31C86,66.3,80.54,74.17,79.58,85.21Z"/></g><path class="cls-1" d="M112.18,120.54l-2,0h-0.66c-1.75,0-3.73-.07-4.76-2.18-1.11-2.3.36-4.12,1.43-5.45l6.46-8,0.12-.15c5.47-6.79,11.11-13.79,16.7-20.65A10.87,10.87,0,0,1,138.09,80a12.56,12.56,0,0,1,4.49.85c1.9,0.73,3.91,1.69,4.36,3.29a3.08,3.08,0,0,1-.74,2.75c-2.29,3-4.69,6-7,8.82l-2.52,3.12c-1.35,1.67-2.73,3.36-4.06,5-2.93,3.59-6,7.3-8.82,11.08s-5.81,5.45-10.51,5.63ZM138.09,82a8.91,8.91,0,0,0-7,3.33c-5.59,6.85-11.22,13.85-16.68,20.62l-0.13.17-6.46,8c-1.29,1.59-1.66,2.34-1.18,3.32s1.18,1,3,1.06l0.67,0c1.93,0,2,0,2.91,0,4.11-.16,6.38-1.39,9-4.84,2.88-3.81,5.92-7.54,8.87-11.14,1.33-1.63,2.71-3.32,4.05-5l2.51-3.1c2.33-2.88,4.73-5.84,7-8.8a1.4,1.4,0,0,0,.4-1c-0.11-.39-0.74-1-3.15-2A10.56,10.56,0,0,0,138.09,82Z"/><path class="cls-1" d="M136.86,120.79l-1.32,0H135.4c-1.09,0-2.21-.07-3.31-0.21a4.32,4.32,0,0,1-3.65-2.34,3.7,3.7,0,0,1,.65-3.72,89.06,89.06,0,0,1,9.75-11.75,9.85,9.85,0,0,1,7.28-2.68,31.78,31.78,0,0,1,6.28.83,3.1,3.1,0,0,1,2.43,1.86,4.22,4.22,0,0,1-.84,3.95c-3.25,4.35-6.24,8-9.12,11.26C142.63,120.45,139.57,120.79,136.86,120.79Zm9.25-18.73a8,8,0,0,0-5.89,2.12,87.31,87.31,0,0,0-9.52,11.5,1.9,1.9,0,0,0-.42,1.74,2.47,2.47,0,0,0,2.06,1.14c1,0.13,2.08.16,3.12,0.19h0.15l1.25,0c2.26,0,4.8-.26,6.51-2.17,2.84-3.18,5.79-6.82,9-11.12a2.36,2.36,0,0,0,.57-2,1.17,1.17,0,0,0-1-.61A30.11,30.11,0,0,0,146.11,102.06Z"/><path class="cls-1" d="M105.41,100.15l-1.71,0a24.92,24.92,0,0,1-3.23-.28,4.09,4.09,0,0,1-3.28-2.35,3.69,3.69,0,0,1,.63-3.64,99.76,99.76,0,0,1,9.44-11.54,10.87,10.87,0,0,1,8-3.09,18.24,18.24,0,0,1,5.83,1,3.81,3.81,0,0,1,2.35,2.47,3.59,3.59,0,0,1-.62,3.28c-3.37,4.45-6.47,8.21-9.47,11.5C111.23,99.83,108.28,100.15,105.41,100.15Zm9.87-18.93a8.94,8.94,0,0,0-6.59,2.5A98.15,98.15,0,0,0,99.44,95a1.82,1.82,0,0,0-.39,1.71,2.16,2.16,0,0,0,1.75,1.13,22.94,22.94,0,0,0,3,.25l1.64,0c2.87,0,4.95-.33,6.47-2,3-3.25,6-7,9.35-11.36a1.62,1.62,0,0,0,.3-1.49,1.8,1.8,0,0,0-1.09-1.16A16.22,16.22,0,0,0,115.27,81.22Z"/><path class="cls-1" d="M339,144.32c-1.88,0-3.11-1.52-3.13-3.86,0-3.84,0-7.74,0-11.51q0-2.38,0-4.77v-2.12a0.7,0.7,0,0,0-.41-0.64l-0.25-.11a0.71,0.71,0,0,0-.75.11c-3.54,3-6.83,4.57-10.61,5a23.28,23.28,0,0,1-2.73.16h0a18.12,18.12,0,0,1-12.52-4.67,19.82,19.82,0,0,1-6-12,72.22,72.22,0,0,1-.45-10.52c0-1.27,0-2.58,0-3.87-0.07-4.9-.06-9.45,0-13.91a3.23,3.23,0,0,1,3.07-3.42h0.15c1.8,0.09,2.93,1.43,2.94,3.5,0,3.39,0,6.84,0,10.17,0,4.19,0,8.52,0,12.79,0.05,6.5,1.63,9.37,3.17,11.31a12.59,12.59,0,0,0,10.34,5,18.76,18.76,0,0,0,2.89-.24A12,12,0,0,0,335,111.51a26.21,26.21,0,0,0,.84-6.52c0.09-3.11.07-6.27,0.05-9.33,0-1.28,0-2.55,0-3.83V89.17q0-3,0-6c0-3.27,1-4.95,3.11-5h0.1c3,0,3,3.66,3,4.86q0,21.35,0,42.7v14.08c0,0.23,0,.46,0,0.69,0,1.4-.5,3.75-3,3.8H339Z"/><path class="cls-1" d="M398.33,125.54a23.7,23.7,0,0,1-24-24.28,24.45,24.45,0,0,1,7-17.31,23.87,23.87,0,0,1,17.11-7h0.2a23.88,23.88,0,0,1,17.11,7.18,24.71,24.71,0,0,1,6.87,17.49,23.8,23.8,0,0,1-24,23.92h-0.18Zm0-42.87c-9.81,0-17.78,8.4-17.77,18.65s8,18.57,17.83,18.64h0.12c9.69,0,17.65-8.34,17.74-18.59a18.7,18.7,0,0,0-5.42-13.44,17.44,17.44,0,0,0-12.45-5.26h-0.05Z"/><path class="cls-1" d="M456.39,125.54c-13.75-.11-24.08-10.56-24-24.3a24.48,24.48,0,0,1,7-17.3,23.85,23.85,0,0,1,17.09-7h0.23a23.9,23.9,0,0,1,17.1,7.2,24.73,24.73,0,0,1,6.85,17.5,23.79,23.79,0,0,1-24,23.9h-0.21Zm0.1-42.87c-9.83,0-17.84,8.35-17.85,18.58a19,19,0,0,0,5.24,13.19A17.3,17.3,0,0,0,456.48,120h0.13a17.38,17.38,0,0,0,12.56-5.59,18.89,18.89,0,0,0,5.18-13.14c-0.05-10.24-8.05-18.57-17.83-18.57h0Z"/><path class="cls-1" d="M255.2,124.67c-1.89,0-3.13-.29-3.82-1.76s0-2.59,1.27-4c8.54-10.14,17.22-20.45,25.6-30.43l1.8-2.14c0.25-.29.48-0.6,0.77-1l0.3-.38a0.71,0.71,0,0,0,.08-0.74l-0.12-.25a0.7,0.7,0,0,0-.63-0.4H256.58a11.92,11.92,0,0,1-1.77-.09,2.67,2.67,0,0,1-2.26-2.77,2.57,2.57,0,0,1,2.33-2.62,8.6,8.6,0,0,1,1.27-.08h31.39a3.92,3.92,0,0,1,3.18,1.16,2.52,2.52,0,0,1,.31,2.25,6.39,6.39,0,0,1-1.37,2.22c-6.09,7.28-12.3,14.67-18.3,21.81l-5.78,6.88-3,3.62-1.35,1.62a0.7,0.7,0,0,0-.1.75l0.12,0.25a0.7,0.7,0,0,0,.64.41h25.55c2.75,0,3.51,1.24,3.67,2.27a2.92,2.92,0,0,1-.54,2.41,3.47,3.47,0,0,1-2.72,1l-7.65,0H261.55c-2.38,0-4.32,0-6.11,0H255.2Z"/><path class="cls-1" d="M529.46,125.41A3,3,0,0,1,526.6,123a10.12,10.12,0,0,1-.26-2.36q0-4.79,0-9.58c0-4.77,0-9.7-.05-14.55a14.32,14.32,0,0,0-2.76-8.43,13.45,13.45,0,0,0-10.93-5.43,14.76,14.76,0,0,0-3.92.54,12.91,12.91,0,0,0-9.55,11.88c-0.22,5.08-.26,10.24-0.3,15.24,0,2,0,4.1-.06,6.15,0,0.76,0,1.53,0,2.27,0,1.18,0,2.4,0,3.59a3,3,0,0,1-2.8,3.07h-0.26a3.22,3.22,0,0,1-3-2.63,5.47,5.47,0,0,1-.12-1.22c0-2.36,0-4.77,0-7.09,0-5.71-.06-11.62.08-17.42,0.17-7.4,3-13,8.39-16.62a20.08,20.08,0,0,1,11.32-3.63A21.88,21.88,0,0,1,522,79.19C528.43,82.36,532,88,532.43,96c0.17,2.85.12,5.77,0.08,8.6,0,1.28,0,2.61,0,3.92v0.6h0q0,1.73,0,3.46c0,3.3,0,6.7,0,10.05a2.9,2.9,0,0,1-2.83,2.76h-0.16Z"/><path class="cls-1" d="M359.26,125.41h-0.13c-2.56-.09-3.09-2.67-3.09-4.83q0-28.25,0-56.5c0-2.19.54-4.8,3.12-4.8h0.12c1.31,0,3.05.58,3.05,4.8q0,10.13,0,20.25v16q0,10.1,0,20.21C362.33,124.57,360.66,125.41,359.26,125.41Z"/></svg>
