<svg id="Layer_1" data-name="Layer 1" xmlns="http://www.w3.org/2000/svg" height="100%" width="100%" viewBox="0 0 200 200"><defs><style>.cls-1{fill:#231f20;}</style></defs><title>Icons</title><g id="_8rGiuS" data-name="8rGiuS"><path class="cls-1" d="M90.93,150.67q-2.17,0-4.33-.1c-13.83-.63-23.95-7.7-29.27-20.42A102.51,102.51,0,0,1,49.6,85V84.9C50.69,72.31,56.88,63.32,68,58.19a95.64,95.64,0,0,1,46.45-8.67c13.55,0.83,23.13,7.9,28.48,21a103.55,103.55,0,0,1,7.6,41c-0.25,15.46-7.65,26.16-22,31.78A102.75,102.75,0,0,1,90.93,150.67ZM53.59,85.21A98.52,98.52,0,0,0,61,128.61c4.75,11.36,13.41,17.41,25.76,18a97.64,97.64,0,0,0,40.27-7c12.7-5,19.25-14.44,19.47-28.12a99.56,99.56,0,0,0-7.3-39.43c-4.79-11.74-13-17.81-25-18.55a91.69,91.69,0,0,0-44.53,8.31C60,66.3,54.55,74.17,53.59,85.21Z"/></g><path class="cls-1" d="M86.19,120.54l-2,0H83.57c-1.75,0-3.73-.07-4.76-2.18-1.11-2.3.36-4.12,1.43-5.45l6.46-8,0.12-.15C92.29,97.9,97.93,90.9,103.52,84A10.87,10.87,0,0,1,112.09,80a12.56,12.56,0,0,1,4.49.85c1.9,0.73,3.91,1.69,4.36,3.29a3.08,3.08,0,0,1-.74,2.75c-2.29,3-4.69,6-7,8.82l-2.52,3.12c-1.35,1.67-2.73,3.36-4.06,5-2.93,3.59-6,7.3-8.82,11.08s-5.81,5.45-10.51,5.63ZM112.09,82a8.91,8.91,0,0,0-7,3.33c-5.59,6.85-11.22,13.85-16.68,20.62l-0.13.17-6.46,8c-1.29,1.59-1.66,2.34-1.18,3.32s1.18,1,3,1.06l0.67,0c1.93,0,2,0,2.91,0,4.11-.16,6.38-1.39,9-4.84,2.88-3.81,5.92-7.54,8.87-11.14,1.33-1.63,2.71-3.32,4.05-5l2.51-3.1c2.33-2.88,4.73-5.84,7-8.8a1.4,1.4,0,0,0,.4-1c-0.11-.39-0.74-1-3.15-2A10.56,10.56,0,0,0,112.09,82Z"/><path class="cls-1" d="M110.87,120.79l-1.32,0h-0.15c-1.09,0-2.21-.07-3.31-0.21a4.32,4.32,0,0,1-3.65-2.34,3.7,3.7,0,0,1,.65-3.72,89.06,89.06,0,0,1,9.75-11.75,9.85,9.85,0,0,1,7.28-2.68,31.78,31.78,0,0,1,6.28.83,3.1,3.1,0,0,1,2.43,1.86,4.22,4.22,0,0,1-.84,3.95c-3.25,4.35-6.24,8-9.12,11.26C116.64,120.45,113.58,120.79,110.87,120.79Zm9.25-18.73a8,8,0,0,0-5.89,2.12,87.31,87.31,0,0,0-9.52,11.5,1.9,1.9,0,0,0-.42,1.74,2.47,2.47,0,0,0,2.06,1.14c1,0.13,2.08.16,3.12,0.19h0.15l1.25,0c2.26,0,4.8-.26,6.51-2.17,2.84-3.18,5.79-6.82,9-11.12a2.36,2.36,0,0,0,.57-2,1.17,1.17,0,0,0-1-.61A30.11,30.11,0,0,0,120.12,102.06Z"/><path class="cls-1" d="M79.42,100.15l-1.71,0a24.92,24.92,0,0,1-3.23-.28,4.09,4.09,0,0,1-3.28-2.35,3.69,3.69,0,0,1,.63-3.64A99.76,99.76,0,0,1,81.28,82.3a10.87,10.87,0,0,1,8-3.09,18.24,18.24,0,0,1,5.83,1,3.81,3.81,0,0,1,2.35,2.47A3.59,3.59,0,0,1,96.83,86c-3.37,4.45-6.47,8.21-9.47,11.5C85.24,99.83,82.29,100.15,79.42,100.15Zm9.87-18.93a8.94,8.94,0,0,0-6.59,2.5A98.15,98.15,0,0,0,73.45,95a1.82,1.82,0,0,0-.39,1.71,2.16,2.16,0,0,0,1.75,1.13,22.94,22.94,0,0,0,3,.25l1.64,0c2.87,0,4.95-.33,6.47-2,3-3.25,6-7,9.35-11.36a1.62,1.62,0,0,0,.3-1.49,1.8,1.8,0,0,0-1.09-1.16A16.22,16.22,0,0,0,89.28,81.22Z"/></svg>
